<svg width="1140" height="360" xmlns="http://www.w3.org/2000/svg">

 <g>
  <title>background</title>
  <rect height="402" width="582" y="-1" x="-1" fill="none" id="canvas_background"/>
 </g>
 <g>
  <title>Layer 1</title>
  <path d="m1,0l1140,0l0,360l-1140,0l0,-360z" fill="#56b4d9" id="svg_1"/>
  <path d="m163.289993,114.514l-3.996002,0l-3.266006,-8.637001l-13.062988,0l-3.072006,8.637001l-4.018005,0l11.81601,-30.808998l3.737991,0l11.861008,30.808998zm-8.443008,-11.880997l-4.834,-13.127007c-0.15799,-0.43 -0.315002,-1.116997 -0.472992,-2.062996l-0.085999,0c-0.143997,0.874001 -0.307999,1.561996 -0.494003,2.062996l-4.791,13.127007l10.677994,0zm10.921005,10.634995l0,-4.253998c0.487,0.43 1.070007,0.816002 1.751007,1.160004c0.679993,0.343994 1.395996,0.633995 2.147995,0.869995s1.507004,0.418999 2.266998,0.548004c0.759003,0.128998 1.460999,0.193001 2.104996,0.193001c2.220001,0 3.878006,-0.412003 4.973999,-1.235001s1.643997,-2.009003 1.643997,-3.556c0,-0.831001 -0.182999,-1.554001 -0.547989,-2.170006s-0.87001,-1.177994 -1.514999,-1.686996s-1.406998,-0.995003 -2.28801,-1.460999s-1.830002,-0.956001 -2.847,-1.472c-1.07399,-0.543999 -2.076996,-1.096001 -3.007996,-1.653999c-0.931,-0.559006 -1.740005,-1.175003 -2.427994,-1.848s-1.229004,-1.436005 -1.622009,-2.288002c-0.393997,-0.853004 -0.590988,-1.852005 -0.590988,-2.997002c0,-1.403 0.307999,-2.625 0.923996,-3.663002c0.615997,-1.037994 1.425003,-1.894997 2.427994,-2.567001c1.001999,-0.672997 2.145004,-1.174995 3.427002,-1.503998c1.281998,-0.329002 2.589005,-0.493996 3.921005,-0.493996c3.035995,0 5.248993,0.364998 6.638992,1.096001l0,4.060997c-1.819,-1.261002 -4.153992,-1.890999 -7.003998,-1.890999c-0.787994,0 -1.576004,0.082001 -2.363007,0.247002c-0.787994,0.164993 -1.48999,0.433998 -2.104996,0.806c-0.615997,0.371994 -1.116989,0.852997 -1.503998,1.438995s-0.580002,1.304001 -0.580002,2.148003c0,0.788002 0.145996,1.468002 0.440002,2.041c0.292999,0.572998 0.727005,1.096001 1.300003,1.568001c0.572998,0.473 1.270996,0.931 2.095001,1.375c0.822998,0.444 1.772003,0.931 2.847,1.460999c1.102997,0.543999 2.147995,1.116997 3.136993,1.719002s1.854004,1.267998 2.600006,1.998001c0.744995,0.729996 1.334991,1.539993 1.772003,2.427994c0.436996,0.888 0.654999,1.904999 0.654999,3.051003c0,1.518997 -0.297012,2.804001 -0.891998,3.856003c-0.595001,1.052994 -1.396011,1.907997 -2.406006,2.566994s-2.173996,1.135002 -3.490997,1.429001c-1.318008,0.292999 -2.707001,0.440002 -4.167999,0.440002c-0.487,0 -1.089005,-0.040001 -1.805008,-0.117996c-0.716003,-0.079002 -1.446991,-0.193001 -2.190994,-0.344002c-0.744995,-0.150002 -1.449997,-0.337006 -2.115997,-0.558998s-1.202011,-0.467003 -1.602005,-0.739006zm27.807999,-10.398994l0,11.644997l-3.608994,0l0,-30.808998l8.464996,0c3.293991,0 5.847,0.802002 7.658997,2.405998c1.811996,1.603996 2.718002,3.866997 2.718002,6.789001s-1.005997,5.312996 -3.018997,7.175995c-2.013,1.862007 -4.729996,2.793007 -8.153,2.793007l-4.061005,0zm0,-15.898003l0,12.632996l3.781006,0c2.491989,0 4.393997,-0.568993 5.703995,-1.707993s1.966003,-2.746002 1.966003,-4.823006c0,-4.067001 -2.406006,-6.101997 -7.219009,-6.101997l-4.231995,0zm21.169006,28.014999c-0.659012,0 -1.221008,-0.236 -1.687012,-0.709c-0.465988,-0.473 -0.697998,-1.038002 -0.697998,-1.696999s0.23201,-1.229004 0.697998,-1.708c0.465012,-0.479004 1.027008,-0.720001 1.687012,-0.720001c0.672989,0 1.246002,0.239998 1.718994,0.720001s0.709,1.048996 0.709,1.708s-0.235992,1.224998 -0.709,1.696999s-1.046997,0.709 -1.718994,0.709zm33.006989,-0.472l-4.425995,0l-15.854996,-24.556999c-0.401001,-0.615997 -0.729996,-1.261002 -0.988007,-1.933998l-0.128998,0c0.113998,0.658997 0.171997,2.069 0.171997,4.231995l0,22.258003l-3.608994,0l0,-30.807999l4.68399,0l15.42601,24.169998c0.645004,1.002998 1.059998,1.690002 1.246002,2.063004l0.085999,0c-0.143997,-0.888 -0.214996,-2.399002 -0.214996,-4.533005l0,-21.699997l3.608994,0l0,30.808998l-0.001007,0zm23.790009,0l-16.327988,0l0,-30.808998l15.641006,0l0,3.265999l-12.031006,0l0,10.248001l11.128998,0l0,3.243996l-11.128998,0l0,10.785004l12.718994,0l0,3.265999l-0.001007,0zm23.53302,-27.542999l-8.89502,0l0,27.542999l-3.608978,0l0,-27.542999l-8.873016,0l0,-3.265999l21.377014,0l0,3.265999zm36.622986,26.253998c-2.277008,1.203003 -5.113007,1.805 -8.507996,1.805c-4.382996,0 -7.891998,-1.410995 -10.527008,-4.232002c-2.635986,-2.820999 -3.953003,-6.523994 -3.953003,-11.106995c0,-4.927002 1.481995,-8.909004 4.447021,-11.945s6.724976,-4.555 11.278992,-4.555c2.921997,0 5.34201,0.422997 7.261993,1.267998l0,3.846001c-2.205994,-1.231003 -4.640991,-1.848 -7.304993,-1.848c-3.537994,0 -6.406006,1.181999 -8.604004,3.544998c-2.199005,2.362999 -3.298004,5.521004 -3.298004,9.474998c0,3.753006 1.027008,6.742004 3.083008,8.970001c2.054993,2.228004 4.751007,3.341003 8.088989,3.341003c3.093994,0 5.772003,-0.688004 8.035004,-2.063004l0,3.5zm14.380005,1.804001c-3.251007,0 -5.847992,-1.027 -7.787994,-3.083c-1.94101,-2.056 -2.911011,-4.779999 -2.911011,-8.174995c0,-3.695007 1.01001,-6.581001 3.028992,-8.658005s4.748016,-3.114998 8.186005,-3.114998c3.279999,0 5.839996,1.010002 7.681,3.028999c1.839996,2.019997 2.761017,4.819 2.761017,8.400002c0,3.508995 -0.992004,6.32 -2.976013,8.432999c-1.984009,2.112999 -4.644989,3.168999 -7.981995,3.168999zm0.257996,-20.066002c-2.263,0 -4.053986,0.770004 -5.371002,2.310005c-1.317993,1.540001 -1.97699,3.662994 -1.97699,6.369995c0,2.606003 0.665985,4.662003 1.997986,6.166s3.115021,2.256004 5.350006,2.256004c2.277008,0 4.028015,-0.737 5.252991,-2.213005s1.837006,-3.572998 1.837006,-6.294998c0,-2.75 -0.612,-4.870003 -1.837006,-6.359001s-2.975983,-2.235001 -5.252991,-2.235001zm27.184998,1.117004c-0.615997,-0.473 -1.503998,-0.709 -2.664001,-0.709c-1.503998,0 -2.760986,0.709 -3.770996,2.126999s-1.514984,3.351997 -1.514984,5.801003l0,11.214996l-3.52301,0l0,-22l3.52301,0l0,4.532997l0.085999,0c0.500977,-1.546997 1.267975,-2.753998 2.298981,-3.619995s2.184021,-1.300003 3.459015,-1.300003c0.916992,0 1.617981,0.100998 2.10498,0.301003l0,3.652l0.001007,0zm20.890015,8.314995l-15.53302,0c0.057007,2.449005 0.716003,4.340004 1.97702,5.672005c1.259979,1.332001 2.992981,1.998001 5.198975,1.998001c2.478027,0 4.755005,-0.816002 6.832001,-2.449005l0,3.309006c-1.93399,1.403 -4.48999,2.104996 -7.669983,2.104996c-3.108002,0 -5.550018,-0.999001 -7.325989,-2.997002c-1.776001,-1.997993 -2.664001,-4.808998 -2.664001,-8.432999c0,-3.422997 0.970001,-6.212997 2.91098,-8.367996c1.940002,-2.154999 4.351013,-3.233002 7.229004,-3.233002s5.105988,0.931 6.682007,2.792999c1.574982,1.862 2.363007,4.446999 2.363007,7.755997l0,1.847zm-3.610016,-2.987c-0.014984,-2.033997 -0.505005,-3.615997 -1.471985,-4.747993s-2.309998,-1.697006 -4.028015,-1.697006c-1.661987,0 -3.071991,0.595001 -4.231995,1.783005s-1.876007,2.742996 -2.14801,4.661995l11.880005,0zm40.699005,-39.407997l-1,0l0,74l1,0l0,-74zm83.59198,54.095001l-1.84198,0l-7.165009,-24.235001c-0.358978,-1.243004 -0.561981,-2.252998 -0.605988,-3.031998l-0.089996,0c-0.045013,0.658997 -0.277008,1.654999 -0.696014,2.987l-7.636993,24.279999l-1.84201,0l-9.567993,-32.209l2.493011,0l7.345001,25.807999c0.328979,1.167999 0.561981,2.119003 0.695984,2.852997l0.089996,0c0.089996,-0.554001 0.35202,-1.504997 0.786011,-2.852997l7.950989,-25.807999l1.123016,0l7.299988,25.807999c0.343994,1.197998 0.575989,2.149002 0.695984,2.852997l0.090027,0c0.075012,-0.418999 0.19397,-0.897995 0.359009,-1.437996l7.546997,-27.223l2.403015,0l-9.433044,32.209zm14.445007,-28.794998c-0.448975,0 -0.846008,-0.165001 -1.190002,-0.494003c-0.344971,-0.329002 -0.516968,-0.749001 -0.516968,-1.258003c0,-0.493996 0.175964,-0.894997 0.527954,-1.201996c0.352051,-0.306999 0.745056,-0.459999 1.179016,-0.459999c0.463989,0 0.872009,0.150002 1.223999,0.448997c0.35199,0.300003 0.528015,0.704002 0.528015,1.212997c0,0.479004 -0.171997,0.891006 -0.517029,1.235001c-0.343994,0.345001 -0.755981,0.517006 -1.234985,0.517006zm-1.010986,28.794998l0,-23l2.065979,0l0,23l-2.065979,0zm24.239014,0l0,-13.387001c0,-5.525002 -1.992004,-8.288002 -5.975037,-8.288002c-2.216003,0 -4.03595,0.813004 -5.458008,2.437004c-1.422974,1.625 -2.133972,3.634995 -2.133972,6.030998l0,13.207001l-2.065979,0l0,-23l2.065979,0l0,4.178001l0.090027,0c1.677002,-3.159004 4.296997,-4.739006 7.860962,-4.739006c2.484985,0 4.387024,0.828003 5.705017,2.482002c1.317017,1.654999 1.97699,4.016998 1.97699,7.085999l0,13.993004l-2.065979,0zm24.484985,0l0,-4.178001l-0.090027,0c-0.747986,1.453003 -1.85498,2.605003 -3.323975,3.459c-1.46698,0.854004 -3.122009,1.279999 -4.963013,1.279999c-2.829956,0 -5.140015,-1.032997 -6.929016,-3.099998c-1.789978,-2.066002 -2.68396,-4.918999 -2.68396,-8.557999c0,-3.712997 0.97699,-6.719002 2.930969,-9.017998c1.954041,-2.298004 4.488037,-3.448006 7.603027,-3.448006c3.445007,0 5.899963,1.415001 7.367004,4.245003l0.089966,0l0,-14.733002l2.06604,0l0,34.051003l-2.067017,0zm0,-13.993004c0,-2.140999 -0.677979,-3.957001 -2.031006,-5.446999c-1.35498,-1.489998 -3.179993,-2.235001 -5.469971,-2.235001c-2.411011,0 -4.402039,0.925003 -5.975037,2.774002c-1.57196,1.849998 -2.357971,4.390999 -2.357971,7.625c0,3.175003 0.708008,5.625999 2.122986,7.356003s3.237976,2.593994 5.468994,2.593994c2.619995,0 4.648987,-0.811996 6.085999,-2.436996c1.437988,-1.625 2.156006,-3.605003 2.156006,-5.941002l0,-4.289001zm17.838013,14.554001c-3.354004,0 -6.009033,-1.103996 -7.962036,-3.312996c-1.954956,-2.208 -2.932007,-5.080002 -2.932007,-8.614006c0,-3.817993 1.021057,-6.806 3.06604,-8.961998c2.042969,-2.155998 4.734985,-3.234001 8.073975,-3.234001c3.278992,0 5.869995,1.070999 7.770996,3.212006c1.901001,2.141998 2.853027,5.105995 2.853027,8.894997c0,3.579002 -0.970032,6.476997 -2.908997,8.692001c-1.937988,2.215996 -4.592041,3.323997 -7.960999,3.323997zm0.156982,-22.236c-2.710022,0 -4.869995,0.914001 -6.47998,2.740005c-1.609009,1.826996 -2.414001,4.364998 -2.414001,7.613998c0,3.009995 0.786011,5.428001 2.357971,7.254997s3.721008,2.739998 6.446045,2.739998c2.770996,0 4.903992,-0.897995 6.401001,-2.695s2.245972,-4.290001 2.245972,-7.478996c0,-3.278999 -0.744995,-5.794998 -2.234985,-7.547005c-1.489014,-1.751999 -3.596008,-2.627998 -6.322021,-2.627998zm35.086975,21.675003l-1.931946,0l-5.009033,-17.340004c-0.13501,-0.478996 -0.255005,-1.122993 -0.359009,-1.931999l-0.112,0c-0.029968,0.345001 -0.179993,0.973999 -0.448975,1.887001l-5.61499,17.385002l-1.932007,0l-6.940002,-23l2.291016,0l5.345947,18.350998c0.13501,0.479004 0.239014,1.123001 0.314026,1.931999l0.179993,0c0.030029,-0.433998 0.171997,-1.077995 0.427002,-1.931999l5.840027,-18.350998l1.414978,0l5.210999,18.350998c0.119995,0.434998 0.224976,1.078003 0.314026,1.931999l0.179993,0c0,-0.433998 0.127014,-1.077995 0.381958,-1.931999l5.458008,-18.350998l2.134033,0l-7.144043,23zm9.616028,-1.011002l0,-2.492996c0.778015,0.673996 1.721985,1.205994 2.830017,1.594994c1.107971,0.389999 2.065979,0.584 2.875,0.584c3.607971,0 5.412964,-1.474998 5.412964,-4.424995c0,-1.017998 -0.395996,-1.887001 -1.190002,-2.605003s-2.080994,-1.459999 -3.862976,-2.223999c-2.200989,-0.958 -3.747009,-1.949997 -4.638,-2.975998c-0.892029,-1.025002 -1.336975,-2.272003 -1.336975,-3.739998c0,-1.872002 0.714966,-3.384003 2.145996,-4.537003c1.429993,-1.153 3.191956,-1.729004 5.289001,-1.729004c1.97699,0 3.669006,0.404007 5.075989,1.213005l0,2.335999c-1.707031,-1.108002 -3.473999,-1.662003 -5.301025,-1.662003c-1.513,0 -2.731995,0.393005 -3.661011,1.179001s-1.393005,1.807999 -1.393005,3.066002c0,1.093002 0.292053,1.980003 0.876038,2.662003c0.583984,0.681999 1.872009,1.463997 3.862976,2.347c2.395996,1.077995 4.04303,2.077995 4.94104,2.999001s1.347961,2.144997 1.347961,3.671997c0,1.826996 -0.685974,3.334999 -2.054993,4.526001c-1.370972,1.189995 -3.260986,1.785995 -5.671997,1.785995c-2.214966,-0.001999 -4.063965,-0.525993 -5.546997,-1.573997zm80.184998,1.011002l0,-32.209l2.223999,0l0,30.187996l12.914978,0l0,2.021004l-15.138977,0zm20.802002,-28.794998c-0.448975,0 -0.846008,-0.165001 -1.190002,-0.494003c-0.344971,-0.329002 -0.516968,-0.749001 -0.516968,-1.258003c0,-0.493996 0.175964,-0.894997 0.527954,-1.201996c0.35199,-0.306999 0.744019,-0.459999 1.179016,-0.459999c0.463989,0 0.872009,0.150002 1.223999,0.448997c0.353027,0.300003 0.528015,0.704002 0.528015,1.212997c0,0.479004 -0.171997,0.891006 -0.517029,1.235001c-0.344971,0.345001 -0.755981,0.517006 -1.234985,0.517006zm-1.010986,28.794998l0,-23l2.065979,0l0,23l-2.065979,0zm24.237976,0l0,-13.387001c0,-5.525002 -1.990967,-8.288002 -5.974976,-8.288002c-2.216003,0 -4.035034,0.813004 -5.458008,2.437004c-1.422974,1.625 -2.134033,3.634995 -2.134033,6.030998l0,13.207001l-2.065979,0l0,-23l2.065979,0l0,4.178001l0.090027,0c1.677002,-3.159004 4.297974,-4.739006 7.861023,-4.739006c2.484985,0 4.388,0.828003 5.704956,2.482002c1.317017,1.654999 1.977051,4.016998 1.977051,7.085999l0,13.993004l-2.06604,0zm23.340027,0l0,-4.178001l-0.090027,0c-1.602966,3.160004 -4.072998,4.738998 -7.411987,4.738998c-5.435974,0 -8.153015,-3.420998 -8.153015,-10.264999l0,-13.295998l2.088989,0l0,12.779999c0,3.114998 0.513,5.375999 1.539001,6.782997c1.025024,1.408005 2.639038,2.111 4.840027,2.111c2.141968,0 3.875,-0.785995 5.198975,-2.357994c1.32605,-1.572006 1.988037,-3.668007 1.988037,-6.289001l0,-13.027l2.065979,0l0,23l-2.065979,0zm15.72699,-11.276001l7.502014,11.275002l-2.627991,0l-6.064026,-9.703003l-0.090027,0l-0.80896,1.279999c-0.104004,0.18 -0.231995,0.382004 -0.382019,0.606003l-5.075989,7.816002l-2.515991,0l7.682007,-11.230003l-7.546997,-11.769997l2.425964,0l5.121033,8.242996c0.658997,1.063004 1.055969,1.722 1.190002,1.977005l0.089966,0l1.145996,-1.887001l5.346008,-8.333l2.426025,0l-7.817017,11.725998zm85.656006,11.836998c-4.552002,0 -8.179993,-1.512001 -10.882996,-4.536995c-2.702026,-3.024002 -4.054016,-6.955002 -4.054016,-11.792c0,-5.136002 1.388977,-9.25 4.166992,-12.342003c2.777039,-3.092003 6.569031,-4.638 11.376038,-4.638c4.342957,0 7.856995,1.486 10.545959,4.458c2.687988,2.973 4.031006,6.870003 4.031006,11.691002c0,5.331001 -1.377991,9.522995 -4.132996,12.577995s-6.437988,4.582001 -11.049988,4.582001zm0.223999,-31.288002c-3.742981,0 -6.824036,1.355003 -9.242004,4.065002c-2.419006,2.709999 -3.627991,6.259003 -3.627991,10.646004c0,4.432999 1.145996,7.961998 3.437012,10.589996s5.345947,3.942001 9.164001,3.942001c3.982971,0 7.134949,-1.299004 9.455994,-3.897003c2.320984,-2.598 3.480957,-6.217995 3.480957,-10.860001c0,-4.551994 -1.134949,-8.103996 -3.401978,-10.657997c-2.27002,-2.551003 -5.356995,-3.828003 -9.265991,-3.828003zm19.701965,29.581001l0,-2.537994c2.30603,1.467995 4.642029,2.200996 7.007996,2.200996c2.516052,0 4.425049,-0.519997 5.728027,-1.560997s1.953979,-2.497002 1.953979,-4.369003c0,-1.646996 -0.437988,-2.960999 -1.312988,-3.942001c-0.877014,-0.979996 -2.773987,-2.317001 -5.69397,-4.008995c-3.265015,-1.901001 -5.330994,-3.493004 -6.199036,-4.773003s-1.302979,-2.759003 -1.302979,-4.435997c0,-2.276001 0.883972,-4.208 2.650024,-5.795006c1.766968,-1.586998 4.125,-2.380997 7.074951,-2.380997c1.916992,0 3.833008,0.321999 5.75,0.965996l0,2.336006c-1.886963,-0.854004 -3.899963,-1.280006 -6.041992,-1.280006c-2.187012,0 -3.919006,0.554001 -5.200012,1.662003c-1.278992,1.108002 -1.919983,2.515999 -1.919983,4.223c0,1.647003 0.437988,2.958 1.314026,3.931c0.875,0.973999 2.765991,2.299004 5.670959,3.976006c3.01001,1.706993 5.013,3.223 6.009033,4.547997c0.994995,1.324997 1.492981,2.848999 1.492981,4.570999c0,2.471001 -0.856995,4.485001 -2.570984,6.042c-1.715027,1.557999 -4.137024,2.335999 -7.267029,2.335999c-1.107971,0 -2.38501,-0.171997 -3.828979,-0.516998c-1.445984,-0.345001 -2.551025,-0.741997 -3.314026,-1.191002zm40.5,1.146004l-7.411987,-12.286003c-0.463989,-0.764 -0.860962,-1.512001 -1.190002,-2.245995l-0.112,0c-0.403992,0.823997 -0.830994,1.571999 -1.279968,2.245995l-7.546997,12.286003l-2.673035,0l10.174988,-16.238998l-9.567993,-15.970001l2.673035,0l7.209961,12.105995c0.374023,0.629005 0.764038,1.348 1.16803,2.156006l0.089966,0l1.190002,-2.156006l7.165039,-12.105995l2.583008,0l-9.65802,15.924995l9.882996,16.284004l-2.697021,0z" fill="#fff" id="svg_2"/>
  <rect height="83" width="951" y="57.66" x="101.5" stroke-width="null" stroke-opacity="null" stroke="null" fill-opacity="null" fill="#56b4d9" id="svg_8"/>
  <text xml:space="preserve" y="110.5038" x="130.5" text-anchor="start" stroke-width="0" stroke="#000" fill="#edffff" style="cursor: move; pointer-events: inherit;" font-weight="normal" font-size="48px" font-family="Georgia,Times,"Times New Roman",serif" id="svg_3">QCoding</text>
  <text xml:space="preserve" y="131.2353" x="375.5" transform="matrix(1, 0, 0, 1.42171, 0, -69.0085)" text-anchor="start" stroke-width="0" stroke-opacity="null" stroke="null" fill-opacity="null" fill="#edffff" style="cursor: move; pointer-events: inherit;" font-size="48px" font-family="Georgia,Times,"Times New Roman",serif" id="svg_4">|</text>
  <text xml:space="preserve" y="108.4038" x="477.5" text-anchor="start" stroke-width="0" stroke-opacity="null" stroke="null" fill-opacity="null" fill="#edffff" style="cursor: move; pointer-events: inherit;" font-weight="normal" font-style="italic" font-size="42px" font-family="Georgia,Times,"Times New Roman",serif" id="svg_5">Chatbot</text>
  <text xml:space="preserve" y="108.4038" x="728.5" text-anchor="start" stroke-width="0" stroke-opacity="null" stroke="null" fill-opacity="null" fill="#edffff" style="cursor: move; pointer-events: inherit;" font-style="italic" font-size="42px" font-family="Georgia,Times,"Times New Roman",serif" id="svg_6">Insight Engines</text>
  <path stroke-width="null" stroke-opacity="null" stroke="null" fill-opacity="null" fill="#56b4d9" id="svg_10"/>
 </g>
</svg>